<?xml version="1.0"?>
<svg xmlns="http://www.w3.org/2000/svg" xmlns:xlink="http://www.w3.org/1999/xlink" xmlns:svgjs="http://svgjs.com/svgjs" version="1.1" width="512" height="512" x="0" y="0" viewBox="0 0 512 512" style="enable-background:new 0 0 512 512" xml:space="preserve"><g><g xmlns="http://www.w3.org/2000/svg" id="outline"><circle cx="176" cy="160" r="8" fill="#ffffff" data-original="#000000" style=""/><circle cx="240" cy="160" r="8" fill="#ffffff" data-original="#000000" style=""/><circle cx="336" cy="440" r="8" fill="#ffffff" data-original="#000000" style=""/><path d="M188.422,143.155l7.156-14.31a43.991,43.991,0,0,0-39.156,0l7.156,14.31A27.917,27.917,0,0,1,188.422,143.155Z" fill="#ffffff" data-original="#000000" style=""/><path d="M252.422,143.155l7.156-14.31a43.991,43.991,0,0,0-39.156,0l7.156,14.31A27.917,27.917,0,0,1,252.422,143.155Z" fill="#ffffff" data-original="#000000" style=""/><path d="M208,224a24.027,24.027,0,0,0,24-24H216a8,8,0,0,1-16,0H184A24.027,24.027,0,0,0,208,224Z" fill="#ffffff" data-original="#000000" style=""/><rect x="200" y="160" width="16" height="24" fill="#ffffff" data-original="#000000" style=""/><path d="M488,336H381.294a88.17,88.17,0,0,0-47.641-31.065l-46.162-11.72A8.008,8.008,0,0,0,286.4,291.2l-24-32a7.994,7.994,0,0,0-6.4-3.195V240.293l18.518-21.605A56.029,56.029,0,0,0,287.979,183.2,40.068,40.068,0,0,0,320,144a24.027,24.027,0,0,0-24-24h-8V105.615l4.438-2.959a8,8,0,0,0,3.15-9.186h0l-.008-.026,0-.005L289.3,74.6a85.7,85.7,0,0,0-162.6,0l-6.281,18.843,0,.005-.008.026h0a8,8,0,0,0,3.15,9.186L128,105.615V120h-8a24.027,24.027,0,0,0-24,24,40.068,40.068,0,0,0,32.021,39.2,56.033,56.033,0,0,0,13.46,35.489L160,240.293v15.713a7.99,7.99,0,0,0-6.4,3.194l-24,32a7.976,7.976,0,0,0-1.091,2.015l-46.162,11.72A87.928,87.928,0,0,0,16,390.229V488a8,8,0,0,0,8,8H488a8,8,0,0,0,8-8V456h-.011a7.965,7.965,0,0,0-.4-2.53l-14.952-44.856,14.518-29.036a7.974,7.974,0,0,0,.83-3.578H496V344A8,8,0,0,0,488,336Zm-8,32H200V352H480Zm-64,72a8,8,0,0,0-8,8H376a8,8,0,0,0-16,0H280a8,8,0,0,0-16,0H232c0-1.873,4.96-8.638,27-14.936a235.191,235.191,0,0,1,39.909-7.237,8,8,0,1,0,9.016-.792C316.967,424.357,326.379,424,336,424a348.7,348.7,0,0,1,49.489,3.362,8,8,0,1,0,14.207,2.474c4.686.967,9.143,2.04,13.3,3.228,22.042,6.3,27,13.063,27,14.936H424A8,8,0,0,0,416,440Zm51.056-40H212.944l-8-16H475.056ZM212.944,416h48.039c-2.179.538-4.318,1.093-6.377,1.681C228.989,425,216,435.2,216,448H196.944Zm204.45,1.681c-2.059-.588-4.2-1.143-6.377-1.681h55.217L476.9,448H456C456,435.2,443.011,425,417.394,417.681ZM268.278,293.7,241.24,309.927l-19.735-19.736,32.1-16.049ZM208,279.056l-32.064-16.033c.039-.794.064-1.59.064-2.385v-5.869a60.081,60.081,0,0,0,64,0v5.869c0,.8.025,1.591.064,2.385ZM296,136a8.009,8.009,0,0,1,8,8,24.039,24.039,0,0,1-16,22.624V136ZM143.908,96.99l7.048-3.524a127.556,127.556,0,0,1,114.088,0l7.048,3.524-9.585,6.391-5.283-1.32a202.927,202.927,0,0,0-98.447,0l-5.284,1.321ZM208,32a69.6,69.6,0,0,1,66.119,47.656l.184.551-2.1-1.052a143.556,143.556,0,0,0-128.4,0l-2.1,1.052.184-.552A69.605,69.605,0,0,1,208,32ZM112,144a8.009,8.009,0,0,1,8-8h8v30.624A24.039,24.039,0,0,1,112,144Zm32,38.243V116.281l3.562,2.375a8.007,8.007,0,0,0,6.378,1.106l8.717-2.18a187.777,187.777,0,0,1,90.686,0l8.717,2.179a8.007,8.007,0,0,0,6.378-1.106L272,116.281v65.962a40.022,40.022,0,0,1-9.63,26.032l-20.825,24.3a44.182,44.182,0,0,1-67.09,0l-20.826-24.3A40.022,40.022,0,0,1,144,182.243Zm18.394,91.9,32.1,16.049L174.76,309.927,147.722,293.7Zm-76.11,46.3,52.633-13.361,32.967,19.779a8,8,0,0,0,9.773-1.2L200,307.314V328h16V307.314l18.343,18.343a8,8,0,0,0,9.773,1.2l32.967-19.779,52.633,13.361A72.088,72.088,0,0,1,359.335,336H192a8,8,0,0,0-8,8v32h.015a7.974,7.974,0,0,0,.83,3.578L199.056,408l-22.211,44.422a7.974,7.974,0,0,0-.83,3.578H176v24H112V384H96v56H32V390.229A71.942,71.942,0,0,1,86.284,320.442ZM32,456H96v24H32Zm160,24V464H480v16Z" fill="#ffffff" data-original="#000000" style=""/></g></g></svg>
